<?xml version="1.0" ?><svg height="14px" version="1.1" viewBox="0 0 20 14" width="20px" xmlns="http://www.w3.org/2000/svg" xmlns:sketch="http://www.bohemiancoding.com/sketch/ns" xmlns:xlink="http://www.w3.org/1999/xlink"><title/><desc/><defs/><g fill="none" fill-rule="evenodd" id="Page-1" stroke="none" stroke-width="1"><g fill="#000000" id="Icons-Device" transform="translate(-44.000000, -213.000000)"><g id="storage" transform="translate(44.000000, 213.000000)"><path d="M0,14 L20,14 L20,10 L0,10 L0,14 L0,14 Z M2,11 L4,11 L4,13 L2,13 L2,11 L2,11 Z M0,0 L0,4 L20,4 L20,0 L0,0 L0,0 Z M4,3 L2,3 L2,1 L4,1 L4,3 L4,3 Z M0,9 L20,9 L20,5 L0,5 L0,9 L0,9 Z M2,6 L4,6 L4,8 L2,8 L2,6 L2,6 Z" id="Shape"/></g></g></g></svg>